<?xml version="1.0" encoding="UTF-8" standalone="no"?>
<!-- Generator: Adobe Illustrator 24.0.3, SVG Export Plug-In . SVG Version: 6.00 Build 0)  -->

<svg
   version="1.1"
   id="Layer_1"
   x="0px"
   y="0px"
   viewBox="0 0 85 76"
   enable-background="new 0 0 291.6 275.7"
   xml:space="preserve"
   width="85"
   height="76"
   xmlns="http://www.w3.org/2000/svg"
   xmlns:svg="http://www.w3.org/2000/svg"
   xmlns:ns="&amp;ns_sfw;"><defs
   id="defs2" />
<metadata
	<ns:slices />
	<ns:sliceSourceBounds
   bottomLeftOrigin="true"
   height="275.7"
   width="291.6"
   x="3.7"
   y="12.1" />
</ns:sfw>
</metadata>
<path
   style="fill:#ffffff"
   d="m 84.551197,126.30504 -11.409371,18.50854 -7.606247,12.16999 -14.958953,30.17145 -8.366872,23.83291 1.774791,22.5652 25.607699,24.33999 36.763526,12.17 62.62477,-1.01417 20.79041,-89.75372 13.69125,-22.81874 13.18416,-6.33854 4.3102,-6.84562 1.01417,-15.46604 15.46604,-25.10061 3.0425,-14.705409 -0.25355,-19.26916 -9.38103,-25.100615 -10.90229,-13.944787 -19.26916,-11.409371 -18.76208,-6.084997 -30.67853,0.507083 -19.01562,7.606247 -24.84707,25.607699 -7.606251,14.958953 -1.52125,13.944786 1.52125,31.946231 z"
   id="path3" /><g
   transform="matrix(0.1,0,0,-0.1,-2.1600214,245.04134)"
   id="g2">
	<path
   d="M 1134,2428.3 C 988.6,2362.5 944.8,2171 1044,2039.5 l 26.5,-35.8 -35.8,-66.9 c -19.6,-35.8 -45,-106.2 -58.8,-154.6 -19.6,-76.2 -21.9,-109.6 -15,-244.6 5.8,-132.7 3.5,-159.2 -11.5,-171.9 -9.2,-8.1 -34.6,-48.5 -55.4,-91.2 C 838.6,1163.7 757.8,1016 745.2,999.9 c -8.1,-10.4 -8.1,-15 0,-15 6.9,0 15,4.6 19.6,10.4 3.5,5.8 34.6,17.3 70.4,25.4 79.6,17.3 204.2,1.2 358.8,-48.5 249.2,-79.6 330,-132.7 467.3,-305.8 55.4,-71.5 118.8,-139.6 138.5,-153.5 26.5,-16.2 32.3,-24.2 20.8,-27.7 C 1681,442.5 1609.4,386 1550.6,269.4 1501,169 1481.4,54.8 1489.4,-89.4 l 5.8,-110.8 -141.9,-6.9 C 1129.5,-217.5 943.7,-180.6 752.1,-88.3 618.3,-23.6 534,46.8 493.7,126.4 470.6,173.7 466,199.1 467.2,281 c 1.2,116.5 24.2,190.4 115.4,372.7 139.6,279.2 140.8,342.7 1.2,79.6 C 526,623.7 453.3,432.2 436,341 415.2,238.3 425.6,116 461.4,42.2 c 36.9,-75 129.2,-182.3 171.9,-200.8 18.5,-6.9 33.5,-17.3 33.5,-21.9 0,-4.6 -90,-11.5 -198.5,-16.2 -192.7,-8.1 -388.8,-24.2 -446.5,-36.9 -81.9,-18.5 71.5,-42.7 396.9,-62.3 241.2,-15 1839.2,-15 2076.9,0 189.2,11.5 378.5,31.2 409.6,41.5 58.8,20.8 -123.5,43.8 -452.3,57.7 -100.4,4.6 -182.3,11.5 -182.3,17.3 0,4.6 18.5,25.4 41.5,47.3 141.9,131.5 153.5,399.2 23.1,514.6 -49.6,42.7 -91.2,65.8 -141.9,77.3 -20.8,3.5 -38.1,9.2 -38.1,10.4 0,1.2 10.4,21.9 23.1,47.3 12.7,25.4 23.1,61.2 23.1,80.8 -1.2,47.3 -47.3,155.8 -91.2,211.2 -19.6,25.4 -35.8,48.5 -35.8,51.9 0,3.4 16.2,9.2 34.6,13.8 39.2,8.1 161.5,126.9 161.5,155.8 0,9.2 -5.8,36.9 -11.5,60 -13.8,48.5 0,85.4 87.7,228.5 72.7,117.7 99.2,198.5 105,323.1 4.6,94.6 2.3,120 -19.6,178.8 -18.5,50.8 -26.5,98.1 -27.7,173.1 -2.3,124.6 -16.2,155.8 -86.5,201.9 -46.2,31.2 -61.2,34.6 -131.5,33.5 -64.6,-2.3 -81.9,2.3 -103.8,21.9 -13.8,12.7 -54.2,36.9 -88.8,53.1 -144.2,65.8 -278.1,80.8 -458.1,51.9 l -88.8,-13.8 -28.8,34.6 c -16.2,19.6 -46.2,43.8 -66.9,54.2 -49.9,25.4 -158.3,24.2 -217.2,-3.5 z m 766.2,-133.8 c 251.5,-60 463.8,-272.3 510,-511.2 24.2,-129.2 -3.5,-399.2 -36.9,-348.5 -9.2,15 -13.8,12.7 -33.5,-11.5 -46.2,-57.7 -90,-161.5 -110.8,-263.1 -17.3,-88.8 -23.1,-102.7 -41.5,-96.9 -25.4,5.8 -27.7,-23.1 -3.5,-43.8 9.2,-8.1 17.3,-21.9 17.3,-30 0,-17.3 -60,-50.8 -129.2,-72.7 -40.4,-13.8 -46.2,-11.5 -98.1,23.1 -71.5,48.5 -151.2,115.4 -295.4,250.4 -140.8,130.4 -252.7,212.3 -353.1,258.5 -65.8,31.2 -85.4,34.6 -161.5,30 l -87.7,-3.5 -20.8,57.7 c -15,45 -19.6,84.2 -16.2,174.2 3.5,101.5 9.2,125.8 40.4,195 33.5,70.4 39.2,77.3 63.5,69.2 13.8,-4.6 55.4,-11.5 91.2,-13.8 56.5,-4.6 75,-1.2 125.8,26.5 84.2,46.2 125.8,120 125.8,226.2 v 77.3 l 49.6,10.4 c 77.3,17.3 282.7,14.9 364.6,-3.5 z"
   id="path1" />
	<path
   d="m 1976.3,1498.3 c -43.8,-28.8 -113.1,-62.3 -153.5,-76.2 -129.2,-42.7 -168.5,-99.2 -116.5,-165 45,-56.5 192.7,-110.8 308.1,-110.8 46.2,0 50.8,2.3 68.1,43.8 39.2,93.5 30,361.2 -11.5,360 -8.1,0.2 -49.7,-24.1 -94.7,-51.8 z"
   id="path2" />
</g>
</svg>
